<?xml version="1.0" encoding="UTF-8" standalone="no"?><!DOCTYPE svg PUBLIC "-//W3C//DTD SVG 1.1//EN" "http://www.w3.org/Graphics/SVG/1.1/DTD/svg11.dtd"><svg width="100%" height="100%" viewBox="0 0 623 483" version="1.1" xmlns="http://www.w3.org/2000/svg" xmlns:xlink="http://www.w3.org/1999/xlink" xml:space="preserve" xmlns:serif="http://www.serif.com/" style="fill-rule:evenodd;clip-rule:evenodd;stroke-miterlimit:10;"><path d="M56.217,286.667l-56.216,-286.667l48.588,0l35.223,197.006l42.872,-197.006l56.444,0l41.173,200.333l36.2,-200.333l47.611,0l-56.967,286.667l-50.422,-0l-46.867,-214.411l-46.433,214.411l-51.206,-0Z" style="fill:#0f269a;fill-rule:nonzero;"/><path d="M359.532,0.002l-46.472,0l56.217,286.667l42.811,-0l-52.556,-286.667Z" style="fill:#0f269a;fill-rule:nonzero;"/><path d="M471.777,0.002l47.611,0l-56.966,286.667l-44.867,-0" style="fill:#0f269a;fill-rule:nonzero;"/><path d="M569.331,0.002l-46.473,0l56.223,286.667l42.805,-0l-52.555,-286.667Z" style="fill:#0f269a;fill-rule:nonzero;"/><path d="M355.822,170.201c-0,25.405 -20.589,46 -46,46c-25.406,-0 -46,-20.595 -46,-46c-0,-25.406 20.594,-46 46,-46c25.411,-0 46,20.594 46,46" style="fill:#368ede;fill-rule:nonzero;"/><path d="M355.822,170.201c-0,-25.389 -20.612,-46 -46,-46c-25.388,-0 -46,20.611 -46,46c-0,25.388 20.612,46 46,46c25.388,-0 46,-20.612 46,-46Z" style="fill:none;stroke:#fff;stroke-width:7.22px;"/><path d="M566.417,170.201c0,25.405 -20.594,46 -45.994,46c-25.411,-0 -46.006,-20.595 -46.006,-46c0,-25.406 20.595,-46 46.006,-46c25.4,-0 45.994,20.594 45.994,46" style="fill:#368ede;fill-rule:nonzero;"/><path d="M566.417,170.201c0,-25.389 -20.612,-46 -46,-46c-25.388,-0 -46,20.611 -46,46c0,25.388 20.612,46 46,46c25.388,-0 46,-20.612 46,-46Z" style="fill:none;stroke:#fff;stroke-width:7.22px;"/><rect x="310.056" y="326.947" width="312" height="155.161" style="fill:#0f269a;"/><rect x="0" y="326.947" width="314" height="155.144" style="fill:#368ede;"/><path d="M109.592,435.43l0,-17.878l-17.122,0l-0,-15.561l38.983,0l0,42.906c-4.8,3.061 -10.094,5.372 -15.877,6.933c-5.8,1.572 -12,2.361 -18.612,2.361c-16.394,0 -29.044,-4.222 -37.966,-12.639c-8.934,-8.428 -13.4,-20.394 -13.4,-35.916c-0,-15.773 4.511,-27.812 13.528,-36.139c9,-8.323 22.016,-12.484 39.022,-12.484c5.078,0 10.083,0.534 15.005,1.6c4.911,1.067 9.517,2.606 13.817,4.611l-0,20.512c-3.511,-3.339 -7.539,-5.862 -12.083,-7.556c-4.545,-1.694 -9.539,-2.539 -14.956,-2.539c-9.494,0 -16.589,2.645 -21.267,7.933c-4.7,5.289 -7.044,13.306 -7.044,24.062c-0,10.411 2.256,18.333 6.783,23.772c4.517,5.444 11.1,8.161 19.745,8.161c2.594,-0 4.861,-0.178 6.778,-0.539c1.922,-0.35 3.477,-0.889 4.666,-1.6" style="fill:#fff;fill-rule:nonzero;"/><path d="M185.129,374.27l-0,25.528l11.794,-0c6.828,-0 11.739,-0.995 14.7,-2.978c2.973,-1.989 4.45,-5.261 4.45,-9.822c0,-4.55 -1.466,-7.811 -4.405,-9.784c-2.939,-1.966 -7.861,-2.944 -14.745,-2.944l-11.794,-0Zm32.128,33.867c2.483,0.377 4.644,1.244 6.477,2.611c1.845,1.361 4.089,4 6.739,7.933l22.884,33.695l-27.45,-0l-15.261,-23.656c-0.45,-0.667 -1.05,-1.589 -1.778,-2.756c-4.467,-7.077 -9.722,-10.605 -15.761,-10.605l-7.978,-0l-0,37.017l-24.995,-0l0,-93.667l36.106,-0c16.267,-0 27.95,2.133 35.05,6.4c7.089,4.267 10.633,11.205 10.633,20.833c0,6.439 -2.116,11.561 -6.361,15.361c-4.239,3.806 -10.339,6.089 -18.305,6.834" style="fill:#fff;fill-rule:nonzero;"/><path d="M314.242,373.641c-6.373,-0 -11.045,2.516 -13.984,7.555c-2.933,5.045 -4.405,13.189 -4.405,24.439c-0,11.2 1.472,19.328 4.405,24.367c2.939,5.039 7.611,7.566 13.984,7.566c6.444,0 11.133,-2.527 14.066,-7.566c2.95,-5.039 4.417,-13.167 4.417,-24.367c-0,-11.25 -1.467,-19.394 -4.417,-24.439c-2.933,-5.039 -7.622,-7.555 -14.066,-7.555m-44.406,31.994c0,-16.022 3.745,-28.128 11.233,-36.322c7.489,-8.2 18.545,-12.3 33.173,-12.3c14.7,-0 25.783,4.1 33.261,12.3c7.494,8.194 11.239,20.3 11.239,36.322c-0,15.972 -3.745,28.061 -11.239,36.256c-7.478,8.2 -18.561,12.3 -33.261,12.3c-14.628,-0 -25.684,-4.1 -33.173,-12.3c-7.488,-8.195 -11.233,-20.284 -11.233,-36.256" style="fill:#fff;fill-rule:nonzero;"/><path d="M384.193,417.803l0,-59.095l25.017,0l0,63.739c0,4.684 1.606,8.356 4.811,11c3.233,2.661 7.689,3.995 13.4,3.995c5.695,-0 10.178,-1.334 13.389,-3.995c3.222,-2.644 4.828,-6.316 4.828,-11l-0,-63.739l25,0l-0,59.095c-0,12.716 -3.417,21.955 -10.245,27.728c-6.844,5.772 -17.827,8.661 -32.972,8.661c-15.083,-0 -26.072,-2.889 -32.928,-8.661c-6.861,-5.773 -10.3,-15.012 -10.3,-27.728" style="fill:#fff;fill-rule:nonzero;"/><path d="M527.116,374.27l0,27.472l10.267,0c8.178,0 13.928,-1.022 17.239,-3.072c3.311,-2.056 4.961,-5.606 4.961,-10.661c-0,-5.061 -1.65,-8.622 -4.961,-10.667c-3.311,-2.05 -9.061,-3.072 -17.239,-3.072l-10.267,-0Zm-25,-15.561l34.333,-0c17.445,-0 30.012,2.294 37.673,6.9c7.65,4.6 11.477,12.061 11.477,22.4c0,10.322 -3.827,17.794 -11.477,22.394c-7.661,4.595 -20.228,6.9 -37.673,6.9l-9.333,0l0,35.073l-25,-0l0,-93.667Z" style="fill:#fff;fill-rule:nonzero;"/></svg>